<?xml version="1.0" standalone="no"?>
<!DOCTYPE svg PUBLIC "-//W3C//DTD SVG 20010904//EN"
 "http://www.w3.org/TR/2001/REC-SVG-20010904/DTD/svg10.dtd">
<svg version="1.0" xmlns="http://www.w3.org/2000/svg"
 width="265.000000pt" height="262.000000pt" viewBox="0 0 265.000000 262.000000"
 preserveAspectRatio="xMidYMid meet">

<g transform="translate(0.000000,262.000000) scale(0.100000,-0.100000)"
fill="#000000" stroke="none">
<path d="M510 2265 l0 -135 -135 0 -135 0 0 -404 0 -405 148 -4 c81 -2 263 -5
405 -5 l257 -1 0 -135 0 -135 -261 -1 c-144 0 -266 -3 -270 -6 -5 -3 -9 -63
-9 -135 0 -120 1 -129 19 -129 11 0 22 -6 24 -12 4 -10 6 -10 6 0 1 9 29 12
105 12 85 0 105 -3 110 -16 3 -9 6 -132 6 -275 l0 -260 138 3 137 3 3 133 3
132 269 0 270 0 0 -137 0 -136 203 6 c111 4 232 7 270 7 l67 0 0 131 c0 118
-2 130 -17 128 -49 -4 -253 2 -252 8 1 5 1 128 0 276 l-1 267 -135 0 -135 0 0
135 0 135 140 0 140 0 0 -135 0 -135 129 0 129 0 7 276 c4 151 4 395 -1 542
l-9 267 -125 0 -125 0 -5 -135 -6 -135 -4 135 -5 135 -109 2 c-61 1 -118 -3
-129 -9 -14 -7 -17 -7 -13 1 5 8 -35 11 -138 11 l-146 0 -2 -402 c-1 -222 -4
-343 -5 -270 l-4 132 -128 0 -129 0 -7 270 -7 270 -129 0 -128 0 -4 -132 c-1
-73 -4 -13 -5 135 l-2 267 -135 0 -135 0 0 -135z"/>
<path d="M790 2269 l0 -129 130 0 130 0 0 130 0 129 -130 0 -130 -1 0 -129z"/>
<path d="M2142 2268 l3 -133 138 -3 137 -3 0 136 0 135 -140 0 -141 0 3 -132z"/>
<path d="M1060 1995 l0 -135 130 0 130 0 0 134 0 134 -130 1 -130 2 0 -136z"/>
<path d="M2150 630 l0 -130 130 0 130 0 0 130 0 130 -130 0 -130 0 0 -130z"/>
<path d="M520 517 c0 -7 13 -13 29 -13 23 -1 27 1 18 11 -9 9 -14 10 -19 1 -6
-8 -8 -8 -8 2 0 6 -4 12 -10 12 -5 0 -10 -6 -10 -13z"/>
</g>
</svg>
